<svg width="634" height="527" viewBox="0 0 634 527" fill="none" xmlns="http://www.w3.org/2000/svg">
<path fill-rule="evenodd" clip-rule="evenodd" d="M536.695 125.191C567.704 171.366 603.122 213.927 613.912 268.491C627.717 338.299 654.643 424.488 606.189 476.603C557.462 529.01 469.231 492.397 398.139 500.566C338.131 507.461 280.121 538.855 222.515 520.689C162.214 501.673 118.88 451.823 81.609 400.748C41.176 345.341 -2.09039 285.488 0.872334 216.961C3.88208 147.345 39.6524 76.3945 97.3229 37.2862C150.901 0.953201 221.784 29.1145 286.269 23.4236C338.352 18.827 389.985 -12.5016 438.424 7.18306C487.037 26.9383 507.44 81.6299 536.695 125.191Z" fill="#C4C4C4"/>
</svg>
