<svg width="85" height="85" viewBox="0 0 85 85" fill="none" xmlns="http://www.w3.org/2000/svg">
<g clip-path="url(#clip0)">
<path d="M37 4.80005L36.7 0.300053L37.9 0.200053L38 1.00005C38.2 0.500053 38.7 0.100053 39.5 5.30025e-05C40.7 -0.099947 41.2 0.700053 41.3 1.60005L41.5 4.50005L40.2 4.60005L40 2.00005C40 1.40005 39.7 1.20005 39 1.20005C38.4 1.20005 38.1 1.50005 38.1 2.20005L38.3 4.80005H37Z" fill="black"/>
<path d="M42 2.2C42.1 0.799995 43 -0.100005 44.4 -4.65754e-06C45.8 0.0999953 46.5 0.899995 46.4 2.1C46.4 2.4 46.3 2.6 46.3 2.8L43.2 2.6C43.2 3.2 43.4 3.5 44.2 3.5C44.7 3.5 45 3.4 45 3.1V3L46.3 3.1V3.2C46.2 4.2 45.4 4.7 44.1 4.6C42.6 4.6 42 3.7 42 2.2ZM43.4 1.8L45.3 1.9C45.4 1.4 45.1 1.2 44.4 1.1C43.7 1.1 43.4 1.3 43.4 1.8Z" fill="black"/>
<path d="M46.2 4.70007L48.1 2.70007V2.60007L47 0.200073L48.5 0.500073L49.2 2.20007H49.3L50.5 0.900073L52 1.20007L50.1 3.20007V3.30007L51.2 5.70007L49.7 5.40007L49 3.80007H48.9L47.7 5.00007L46.2 4.70007Z" fill="black"/>
<path d="M52.1 4.4L52.6 2.6L51.9 2.4L52.2 1.3L53 1.4L53.5 0.5L54.5 0.8L54.2 1.8L55.4 2.2L55.1 3.3L53.9 2.9L53.4 4.6C53.3 5 53.4 5 54 5.2L54.5 5.4L54.2 6.5C54 6.5 53.6 6.4 53.3 6.3C52.2 6 51.8 5.4 52.1 4.4Z" fill="black"/>
<path d="M55.4 8.6001L58 3.1001L59.1 3.6001L58.8 4.2001C59.2 3.9001 59.8 3.8001 60.4 4.1001C61.6 4.7001 61.8 5.8001 61.1 7.1001C60.5 8.4001 59.5 8.9001 58.4 8.4001C57.8 8.1001 57.5 7.6001 57.5 7.2001L56.6 9.1001L55.4 8.6001ZM58.7 7.2001C59.4 7.5001 59.8 7.3001 60.1 6.5001C60.5 5.8001 60.4 5.3001 59.7 5.0001C59.1 4.7001 58.7 4.8001 58.4 5.3001L58.1 6.0001C57.9 6.6001 58.1 7.0001 58.7 7.2001Z" fill="black"/>
<path d="M60.7 9.50007L63.1 5.70007L64.2 6.40007L63.8 7.00007C64.2 6.70007 64.8 6.60007 65.3 7.00007C66.1 7.50007 66 8.30007 65.5 9.10007L65.3 9.40007L64.2 8.70007L64.3 8.50007C64.6 8.10007 64.5 7.90007 64.2 7.70007C63.9 7.50007 63.6 7.50007 63.3 7.90007L61.8 10.3001L60.7 9.50007Z" fill="black"/>
<path d="M65.6 9.90001C66.5 8.80001 67.8 8.60001 68.9 9.60001C70 10.5 70.1 11.8 69.2 12.9C68.3 14 67.1 14.2 65.9 13.3C64.8 12.3 64.7 11 65.6 9.90001ZM68.1 12C68.7 11.3 68.6 10.9 68.1 10.5C67.5 10 67.2 10.1 66.6 10.8C66 11.5 66.1 11.9 66.6 12.3C67.2 12.7 67.6 12.7 68.1 12Z" fill="black"/>
<path d="M67.2 14.7001L67.5 15.0001C67.8 15.3001 67.9 15.3001 68.1 15.1001L71.3 11.9001L72.3 12.9001L69.3 15.9001C68.3 16.9001 67.5 16.6001 66.8 15.8001C66.7 15.7001 66.6 15.6001 66.5 15.5001L67.2 14.7001ZM71.6 11.4001L72.3 10.7001L73.3 11.7001L72.6 12.4001L71.6 11.4001Z" fill="black"/>
<path d="M71.1 14.8001C72.2 13.9001 73.5 13.9001 74.4 15.0001C75.3 16.0001 75.2 17.2001 74.3 17.9001C74.1 18.1001 73.9 18.2001 73.7 18.3001L71.7 15.9001C71.2 16.3001 71.2 16.7001 71.7 17.2001C72 17.6001 72.3 17.7001 72.5 17.5001L73.4 18.5001L73.3 18.6001C72.6 19.2001 71.6 18.9001 70.8 18.0001C69.8 16.9001 70 15.7001 71.1 14.8001ZM72.4 15.5001L73.6 16.9001C74 16.6001 74 16.2001 73.6 15.7001C73.1 15.2001 72.8 15.2001 72.4 15.5001Z" fill="black"/>
<path d="M74.3 18.7001C75.5 17.9001 76.8 18.1001 77.6 19.4001C78.3 20.4001 78.1 21.6001 77.2 22.2001L77.1 22.3001L76.4 21.2001H76.5C76.9 20.9001 76.9 20.6001 76.6 20.1001C76.2 19.6001 75.8 19.5001 75.1 19.9001C74.4 20.4001 74.3 20.8001 74.6 21.3001C74.9 21.8001 75.2 21.9001 75.6 21.6001H75.7L76.4 22.7001L76.3 22.8001C75.4 23.4001 74.2 23.0001 73.6 22.0001C72.8 20.7001 73.1 19.5001 74.3 18.7001Z" fill="black"/>
<path d="M76.5 23.7001L78.2 22.8001L77.9 22.2001L78.9 21.7001L79.2 22.4001L80.3 22.2001L80.8 23.2001L79.9 23.7001L80.5 24.8001L79.5 25.3001L78.9 24.2001L77.3 25.0001C76.9 25.2001 77 25.3001 77.2 25.8001L77.4 26.3001L76.4 26.8001C76.3 26.6001 76.1 26.3001 75.9 26.0001C75.4 24.9001 75.5 24.2001 76.5 23.7001Z" fill="black"/>
<path d="M79.6 29.4001L80.7 29.1001L81.6 32.3001L80.5 32.6001L79.6 29.4001Z" fill="black"/>
<path d="M79.3 36.9L83.8 36.5L83.9 37.7L83.1 37.8V37.9C83.6 38.1 84 38.6 84.1 39.3C84.2 40.5 83.5 41 82.5 41.1L79.6 41.3L79.5 40L82.1 39.8C82.7 39.8 82.9 39.5 82.9 38.8C82.8 38.2 82.6 37.9 81.9 37.9L79.3 38.1V36.9Z" fill="black"/>
<path d="M81.9 41.9001C83.3 42.0001 84.2 42.9001 84.1 44.3001C84 45.7001 83.2 46.4001 82 46.4001C81.7 46.4001 81.5 46.3001 81.3 46.3001L81.5 43.2001C80.9 43.2001 80.6 43.4001 80.6 44.2001C80.6 44.7001 80.7 45.0001 81 45.0001H81.1L81 46.3001H80.9C79.9 46.3001 79.4 45.4001 79.5 44.1001C79.5 42.5001 80.5 41.8001 81.9 41.9001ZM82.4 43.2001L82.3 45.0001C82.8 45.1001 83 44.8001 83.1 44.1001C83.1 43.5001 82.8 43.2001 82.4 43.2001Z" fill="black"/>
<path d="M79.5 46L81.5 47.9H81.6L84 46.8L83.7 48.3L82 49V49.1L83.3 50.3L83 51.8L81 49.9H80.9L78.6 51L78.9 49.5L80.5 48.8V48.7L79.2 47.5L79.5 46Z" fill="black"/>
<path d="M79.8 51.9001L81.7 52.4001L81.9 51.7001L83 52.0001L82.8 52.7001L83.7 53.2001L83.4 54.2001L82.4 53.9001L82 55.3001L80.9 55.0001L81.3 53.8001L79.6 53.3001C79.2 53.2001 79.1 53.3001 79 53.9001L78.8 54.4001L77.7 54.1001C77.7 53.9001 77.8 53.5001 77.9 53.2001C78.2 52.1001 78.8 51.6001 79.8 51.9001Z" fill="black"/>
<path d="M75.6 55.3L81.1 57.9001L80.6 59L80 58.7001C80.3 59.1001 80.4 59.7 80.1 60.3C79.6 61.5 78.4 61.7 77.1 61C75.8 60.4 75.3 59.4 75.8 58.3C76.1 57.6 76.6 57.4001 77 57.4001L75.1 56.5L75.6 55.3ZM77 58.5C76.7 59.2 76.9 59.6001 77.7 59.9001C78.4 60.3001 78.9 60.2 79.2 59.5C79.5 58.9 79.4 58.5001 78.9 58.2001L78.1 58C77.6 57.7 77.2 57.9 77 58.5Z" fill="black"/>
<path d="M74.7 60.6001L78.5 63.0001L77.8 64.1001L77.2 63.7001C77.5 64.1001 77.6 64.7001 77.2 65.2001C76.7 66.0001 76 66.0001 75.2 65.5001L74.9 65.3001L75.6 64.2001L75.8 64.3001C76.2 64.6001 76.4 64.5001 76.6 64.2001C76.8 63.9001 76.8 63.6001 76.4 63.3001L74 61.7001L74.7 60.6001Z" fill="black"/>
<path d="M74.3 65.4001C75.4 66.3001 75.6 67.6001 74.7 68.7001C73.8 69.8001 72.5 69.9001 71.4 69.0001C70.3 68.1001 70.1 66.9001 71 65.7001C71.9 64.6001 73.2 64.5001 74.3 65.4001ZM72.2 68.0001C72.9 68.6001 73.3 68.5001 73.7 68.0001C74.2 67.4001 74.1 67.1001 73.4 66.5001C72.7 65.9001 72.3 66.0001 71.9 66.5001C71.5 67.1001 71.5 67.4001 72.2 68.0001Z" fill="black"/>
<path d="M69.6 67.1L69.3 67.4C69 67.6 69 67.7 69.2 68L72.4 71.2L71.5 72.2L68.4 69.2C67.4 68.2 67.7 67.4 68.4 66.7C68.5 66.6 68.6 66.5 68.7 66.4L69.6 67.1ZM72.8 71.5L73.5 72.2L72.6 73.2L71.9 72.5L72.8 71.5Z" fill="black"/>
<path d="M69.4 71C70.3 72.1 70.3 73.4 69.2 74.3C68.2 75.2 67 75.1 66.3 74.2C66.1 74 66 73.8 65.9 73.7L68.3 71.7C67.9 71.2 67.5 71.2 67 71.7C66.6 72 66.5 72.3 66.7 72.5L65.7 73.4L65.6 73.3C65 72.6 65.2 71.6 66.2 70.8C67.4 69.7 68.5 69.9 69.4 71ZM68.8 72.2L67.4 73.4C67.7 73.8 68.1 73.8 68.6 73.4C69 73 69.1 72.6 68.8 72.2Z" fill="black"/>
<path d="M65.6 74.2001C66.4 75.4001 66.2 76.7001 64.9 77.5001C63.9 78.2001 62.7 78.0001 62.1 77.1001L62 77.0001L63.1 76.3001V76.4001C63.4 76.8001 63.7 76.8001 64.2 76.5001C64.7 76.1001 64.8 75.7001 64.4 75.0001C63.9 74.3001 63.5 74.2001 63 74.5001C62.5 74.8001 62.4 75.1001 62.7 75.5001V75.6001L61.6 76.3001L61.5 76.2001C60.9 75.3001 61.3 74.1001 62.3 73.5001C63.6 72.7001 64.8 73.0001 65.6 74.2001Z" fill="black"/>
<path d="M60.6 76.4001L61.5 78.1001L62.1 77.8001L62.6 78.8001L61.9 79.1001L62.1 80.2001L61.2 80.7001L60.7 79.8001L59.6 80.4001L59.1 79.4001L60.2 78.8001L59.4 77.2001C59.2 76.8001 59.1 76.9001 58.6 77.1001L58.1 77.4001L57.6 76.4001C57.8 76.3001 58.1 76.1001 58.3 75.9001C59.4 75.3001 60.1 75.4001 60.6 76.4001Z" fill="black"/>
<path d="M54.9 79.6001L55.2 80.7001L52 81.6001L51.7 80.5001L54.9 79.6001Z" fill="black"/>
<path d="M47.4 79.2001L47.8 83.7001L46.6 83.8001L46.5 83.0001H46.4C46.2 83.5001 45.7 83.9001 45 84.0001C43.8 84.1001 43.3 83.4001 43.2 82.4001L43 79.5001L44.3 79.4001L44.5 82.0001C44.6 82.6001 44.8 82.8001 45.5 82.8001C46.1 82.7001 46.4 82.5001 46.4 81.8001L46.2 79.2001H47.4Z" fill="black"/>
<path d="M42.4 81.9001C42.3 83.3001 41.4 84.2001 40 84.2001C38.6 84.1001 37.9 83.3001 37.9 82.1001C37.9 81.8001 38 81.6001 38 81.4001L41.1 81.5001C41.1 80.9001 40.9 80.6001 40.1 80.6001C39.6 80.6001 39.3 80.7001 39.3 81.0001V81.1001L38 81.0001V80.9001C38 79.9001 38.9 79.4001 40.2 79.5001C41.8 79.5001 42.5 80.4001 42.4 81.9001ZM41.1 82.3001L39.2 82.2001C39.2 82.7001 39.4 82.9001 40.1 83.0001C40.8 83.0001 41 82.8001 41.1 82.3001Z" fill="black"/>
<path d="M38.3 79.5L36.4 81.5V81.6L37.5 84L36 83.7L35.3 82H35.2L34 83.3L32.5 83L34.4 81V80.9L33.3 78.5L34.8 78.8L35.5 80.4H35.6L36.8 79.1L38.3 79.5Z" fill="black"/>
<path d="M32.4 79.8001L31.9 81.7001L32.6 81.9001L32.2 83.0001L31.5 82.8001L31 83.7001L30 83.4001L30.3 82.4001L29 82.0001L29.3 80.9001L30.5 81.3001L31 79.6001C31.1 79.2001 31 79.1001 30.4 79.0001L29.9 78.8001L30.2 77.7001C30.4 77.7001 30.8 77.8001 31.1 77.9001C32.2 78.2001 32.6 78.8001 32.4 79.8001Z" fill="black"/>
<path d="M29 75.7001L26.4 81.2001L25.3 80.7001L25.6 80.1001C25.2 80.4001 24.6 80.5001 24 80.2001C22.8 79.7001 22.6 78.5001 23.2 77.2001C23.8 75.9001 24.8 75.4001 25.9 75.9001C26.6 76.2001 26.8 76.7001 26.8 77.1001L27.7 75.2001L29 75.7001ZM25.8 77.0001C25.1 76.7001 24.7 76.9001 24.4 77.7001C24 78.4001 24.1 78.9001 24.8 79.2001C25.4 79.5001 25.8 79.4001 26.1 78.9001L26.4 78.2001C26.6 77.6001 26.3 77.3001 25.8 77.0001Z" fill="black"/>
<path d="M23.7 74.8L21.3 78.6L20.2 78L20.6 77.4C20.2 77.7 19.6 77.8 19.1 77.4C18.3 76.9 18.4 76.1 18.9 75.3L19.1 74.9L20.2 75.6L20 75.8C19.7 76.2 19.8 76.4 20.1 76.6C20.5 76.8 20.7 76.8 21 76.4L22.5 74L23.7 74.8Z" fill="black"/>
<path d="M18.8 74.4C17.9 75.5 16.6 75.7 15.5 74.8C14.4 73.9 14.3 72.6 15.2 71.5C16.1 70.4 17.3 70.2 18.5 71.1C19.6 72 19.7 73.3 18.8 74.4ZM16.2 72.3C15.6 73 15.7 73.4 16.2 73.8C16.8 74.3 17.2 74.2 17.7 73.5C18.3 72.8 18.2 72.4 17.7 72C17.2 71.6 16.8 71.6 16.2 72.3Z" fill="black"/>
<path d="M12.8 72.9001L12.1 73.6001L11.1 72.7001L11.8 72.0001L12.8 72.9001ZM17.2 69.7001L16.9 69.4001C16.6 69.1001 16.5 69.1001 16.3 69.3001L13.1 72.5001L12.1 71.6001L15.1 68.5001C16.1 67.5001 16.8 67.8001 17.6 68.5001C17.7 68.6001 17.8 68.7001 17.9 68.8001L17.2 69.7001Z" fill="black"/>
<path d="M13.3 69.5001C12.2 70.4001 10.9 70.4001 10 69.3001C9.1 68.3001 9.2 67.1001 10.1 66.4001C10.3 66.2001 10.5 66.1 10.6 66L12.6 68.4001C13.1 68.0001 13.1 67.6 12.6 67.1C12.2 66.7 12 66.6001 11.8 66.8001L10.9 65.8001L11 65.7C11.7 65.1 12.7 65.3001 13.5 66.3001C14.6 67.5001 14.3 68.6 13.3 69.5001ZM12 68.9001L10.8 67.5001C10.4 67.8001 10.4 68.2 10.8 68.7C11.3 69.1 11.6 69.2001 12 68.9001Z" fill="black"/>
<path d="M9.99998 65.7C8.79998 66.5 7.49998 66.3001 6.69998 65.0001C5.99998 64.0001 6.19998 62.8001 7.09998 62.2001L7.19998 62.1L7.99998 63.3H7.89998C7.49998 63.6 7.49998 63.9001 7.79998 64.4001C8.19998 64.9001 8.59998 65.0001 9.29998 64.5001C9.99998 64.0001 10.1 63.6 9.69998 63.1C9.39998 62.6 9.09998 62.5 8.69998 62.8H8.59999L7.89998 61.7001H7.99998C8.89998 61.1001 10.1 61.4001 10.7 62.5001C11.5 63.7001 11.2 64.9 9.99998 65.7Z" fill="black"/>
<path d="M7.8 60.7001L6.1 61.6L6.4 62.2001L5.4 62.7001L5.1 62L4 62.3L3.5 61.4001L4.4 60.9001L3.8 59.8L4.8 59.3L5.4 60.4001L7 59.6C7.4 59.4 7.3 59.3 7.1 58.8L6.8 58.3L7.8 57.8C7.9 58 8.1 58.3 8.3 58.5C8.9 59.5 8.8 60.2001 7.8 60.7001Z" fill="black"/>
<path d="M4.6 55L3.5 55.3L2.5 52.1L3.6 51.8L4.6 55Z" fill="black"/>
<path d="M4.90002 47.6001L0.400016 48.0001L0.300016 46.8001L1.10002 46.7001V46.6001C0.600016 46.4001 0.200016 45.9001 0.100016 45.2001C1.59293e-05 44.0001 0.700016 43.4001 1.70002 43.3001L4.60002 43.1001L4.70002 44.4001L2.00002 44.6001C1.40002 44.7001 1.20002 44.9001 1.20002 45.6001C1.30002 46.2001 1.50002 46.5001 2.20002 46.4001L4.80002 46.2001L4.90002 47.6001Z" fill="black"/>
<path d="M2.3 42.6001C0.9 42.5001 0 41.6001 0 40.2001C0.1 38.8001 0.9 38.1001 2.1 38.1001C2.4 38.1001 2.6 38.2001 2.8 38.2001L2.7 41.3001C3.3 41.3001 3.6 41.1001 3.6 40.3001C3.6 39.8001 3.5 39.5001 3.2 39.5001H3.1L3.2 38.2001H3.3C4.3 38.2001 4.8 39.1001 4.7 40.4001C4.6 42.0001 3.7 42.6001 2.3 42.6001ZM1.8 41.3001L1.9 39.4001C1.4 39.4001 1.2 39.6001 1.1 40.3001C1.1 40.9001 1.3 41.2001 1.8 41.3001Z" fill="black"/>
<path d="M4.70001 38.4001L2.70001 36.6001H2.60001L0.200012 37.7001L0.500012 36.2001L2.10001 35.5001V35.4001L0.800012 34.2001L1.00001 32.7001L3.00001 34.5001H3.10001L5.50001 33.4001L5.20001 35.0001L3.60001 35.7001V35.8001L4.90001 37.0001L4.70001 38.4001Z" fill="black"/>
<path d="M4.30002 32.5001L2.40002 32.0001L2.20002 32.7001L1.10002 32.4001L1.30002 31.7001L0.400024 31.2001L0.700024 30.2001L1.70002 30.5001L2.00002 29.1001L3.10002 29.4001L2.80002 30.6001L4.50002 31.1001C4.90002 31.2001 5.00002 31.1001 5.10002 30.5001L5.30002 30.0001L6.40002 30.3001C6.40002 30.5001 6.30002 30.9001 6.20002 31.2001C5.90002 32.3001 5.30002 32.8001 4.30002 32.5001Z" fill="black"/>
<path d="M8.40002 29.1L2.90002 26.6L3.40002 25.5L4.00002 25.8C3.70002 25.4 3.60002 24.8 3.90002 24.2C4.40002 23 5.60002 22.8 6.90002 23.4C8.20002 24 8.70002 25 8.20002 26.1C7.90002 26.8 7.40002 27 7.00002 27.1L9.00002 27.8L8.40002 29.1ZM7.10002 25.9C7.40002 25.2 7.20002 24.8 6.40002 24.5C5.60002 24.2 5.20002 24.2 4.90002 24.9C4.60002 25.5 4.70002 25.9 5.20002 26.1L5.90002 26.4C6.50002 26.7 6.80002 26.4 7.10002 25.9Z" fill="black"/>
<path d="M9.3 23.8L5.5 21.4L6.2 20.3L6.8 20.7C6.5 20.3 6.4 19.7 6.8 19.2C7.3 18.4 8.1 18.5 8.9 19L9.3 19.2L8.6 20.3L8.4 20.2C8 19.9 7.8 20 7.6 20.4C7.4 20.8 7.4 21 7.8 21.3L10.2 22.8L9.3 23.8Z" fill="black"/>
<path d="M9.70001 18.9C8.60001 18 8.40001 16.7 9.30001 15.6C10.2 14.5 11.5 14.4 12.6 15.3C13.7 16.2 13.9 17.4 13 18.6C12 19.7 10.8 19.8 9.70001 18.9ZM11.7 16.4C11 15.8 10.6 15.9 10.2 16.4C9.70001 17 9.80001 17.4 10.5 17.9C11.2 18.4 11.6 18.4 12 17.9C12.5 17.3 12.4 16.9 11.7 16.4Z" fill="black"/>
<path d="M11.1 12.9001L10.4 12.2001L11.3 11.2001L12 11.9001L11.1 12.9001ZM14.4 17.3001L14.7 17.0001C15 16.7001 15 16.6001 14.8 16.4001L11.6 13.3001L12.5 12.3001L15.6 15.3001C16.6 16.3001 16.4 17.0001 15.6 17.8001C15.5 17.9001 15.4 18.0001 15.3 18.1001L14.4 17.3001Z" fill="black"/>
<path d="M14.5 13.3C13.6 12.2 13.6 10.9 14.7 10C15.7 9.1 16.9 9.2 17.6 10.1C17.8 10.3 17.9 10.5 18 10.6L15.6 12.6C16 13.1 16.4 13.1 16.9 12.6C17.3 12.2 17.4 12 17.2 11.8L18.2 10.9L18.3 11C18.9 11.7 18.7 12.7 17.7 13.5C16.6 14.7 15.4 14.4 14.5 13.3ZM15.1 12.1L16.5 10.9C16.2 10.5 15.8 10.5 15.3 10.9C14.9 11.4 14.9 11.7 15.1 12.1Z" fill="black"/>
<path d="M18.4 10.1001C17.6 8.90008 17.8 7.70008 19.1 6.80008C20.1 6.10008 21.2 6.30008 21.9 7.20008L22 7.30008L20.7 8.00008V7.90008C20.4 7.50008 20.1 7.50008 19.6 7.80008C19.1 8.20008 19 8.60008 19.5 9.30008C20 10.0001 20.4 10.1001 20.9 9.70008C21.4 9.40008 21.5 9.10008 21.2 8.70008V8.60008L22.3 7.90008V8.00008C22.9 8.90008 22.6 10.0001 21.5 10.7001C20.3 11.6001 19.2 11.3001 18.4 10.1001Z" fill="black"/>
<path d="M23.3 7.9L22.4 6.2L21.8 6.5L21.3 5.5L22 5.1L21.7 4L22.6 3.5L23.1 4.4L24.3 4L24.8 5L23.7 5.6L24.5 7.2C24.7 7.6 24.8 7.5 25.3 7.3L25.8 7L26.3 8C26.1 8.1 25.8 8.3 25.6 8.5C24.5 8.9 23.8 8.8 23.3 7.9Z" fill="black"/>
<path d="M29 4.7001L28.7 3.6001L31.9 2.6001L32.2 3.7001L29 4.7001Z" fill="black"/>
<g clip-path="url(#clip1)">
<path d="M36.9159 31.3204L36.9159 36.2511L43.8872 41.7488C44.0407 41.8713 44.0407 42.1288 43.8872 42.252L36.9159 47.7506L36.9159 52.6813C36.9159 52.8029 36.983 52.9145 37.0937 52.9698C37.2044 53.0218 37.3369 53.0067 37.4317 52.9312L50.9692 42.252C51.1227 42.1296 51.1227 41.8721 50.9692 41.7488L37.4317 31.0688C37.3369 30.9941 37.2044 30.9782 37.0937 31.0327C36.983 31.0847 36.9159 31.1971 36.9159 31.3204Z" fill="#EB5757"/>
</g>
</g>
<defs>
<clipPath id="clip0">
<rect width="84.1" height="84.1" fill="white"/>
</clipPath>
<clipPath id="clip1">
<rect width="22" height="22" fill="white" transform="translate(33 31)"/>
</clipPath>
</defs>
</svg>
