<svg width="774" height="118" viewBox="0 0 774 118" fill="none" xmlns="http://www.w3.org/2000/svg">
<path d="M26.4237 116V117H27.4237V116H26.4237ZM26.4237 82.237V81.237H25.4237V82.237H26.4237ZM0.974183 2.32547V1.32547H-0.0258167V2.32547H0.974183ZM0.974183 116H-0.0258167V117H0.974183V116ZM26.4237 59.5021H25.4237V60.5021H26.4237V59.5021ZM26.4237 25.23V24.23H25.4237V25.23H26.4237ZM27.4237 116V82.237H25.4237V116H27.4237ZM26.4237 83.237H53.2305V81.237H26.4237V83.237ZM53.2305 83.237C65.6386 83.237 76.3751 79.5733 84.0206 72.5831C91.6779 65.5821 96.1374 55.3322 96.1374 42.3661H94.1374C94.1374 54.8494 89.8592 64.535 82.671 71.1071C75.471 77.69 65.254 81.237 53.2305 81.237V83.237ZM96.1374 42.3661C96.1374 29.4836 91.6774 19.1939 84.024 12.1309C76.3809 5.07745 65.6446 1.32547 53.2305 1.32547V3.32547C65.248 3.32547 75.4652 6.95386 82.6676 13.6007C89.8598 20.2381 94.1374 29.9686 94.1374 42.3661H96.1374ZM53.2305 1.32547H0.974183V3.32547H53.2305V1.32547ZM-0.0258167 2.32547V116H1.97418V2.32547H-0.0258167ZM0.974183 117H26.4237V115H0.974183V117ZM54.2485 26.23C60.0759 26.23 63.5891 27.0932 65.7182 29.3334C67.8662 31.5934 68.8576 35.514 68.8576 42.3661H70.8576C70.8576 35.4754 69.8978 30.8279 67.1679 27.9556C64.4192 25.0635 60.1279 24.23 54.2485 24.23V26.23ZM68.8576 42.3661C68.8576 49.1292 67.8676 53.0548 65.7154 55.338C63.5835 57.5997 60.0667 58.5021 54.2485 58.5021V60.5021C60.1371 60.5021 64.4249 59.6229 67.1707 56.7099C69.8964 53.8184 70.8576 49.176 70.8576 42.3661H68.8576ZM54.2485 58.5021H26.4237V60.5021H54.2485V58.5021ZM27.4237 59.5021V25.23H25.4237V59.5021H27.4237ZM26.4237 26.23H54.2485V24.23H26.4237V26.23ZM123.321 116V117H123.877L124.17 116.529L123.321 116ZM140.966 87.6662V86.6662H140.411L140.118 87.1376L140.966 87.6662ZM142.663 87.6662L143.505 87.1267L143.21 86.6662H142.663V87.6662ZM160.817 116L159.975 116.539L160.27 117H160.817V116ZM190.338 116V117H192.239L191.163 115.434L190.338 116ZM162.005 74.7718H161.005V75.0823L161.181 75.3382L162.005 74.7718ZM162.005 73.0751L161.173 72.5197L161.005 72.7719V73.0751H162.005ZM190.338 30.6593L191.17 31.2147L192.209 29.6593H190.338V30.6593ZM161.835 30.6593V29.6593H161.281L160.987 30.1293L161.835 30.6593ZM144.02 59.1627V60.1627H144.575L144.868 59.6927L144.02 59.1627ZM142.493 59.1627L141.652 59.7035L141.947 60.1627H142.493V59.1627ZM124.17 30.6593L125.011 30.1185L124.716 29.6593H124.17V30.6593ZM94.818 30.6593V29.6593H92.9217L93.9927 31.2241L94.818 30.6593ZM123.152 72.0572H124.152V71.7477L123.977 71.4924L123.152 72.0572ZM123.152 73.5841L123.983 74.1396L124.152 73.8874V73.5841H123.152ZM94.818 116L93.9864 115.445L92.9474 117H94.818V116ZM124.17 116.529L141.815 88.1948L140.118 87.1376L122.473 115.471L124.17 116.529ZM140.966 88.6662H142.663V86.6662H140.966V88.6662ZM141.821 88.2057L159.975 116.539L161.659 115.461L143.505 87.1267L141.821 88.2057ZM160.817 117H190.338V115H160.817V117ZM191.163 115.434L162.829 74.2054L161.181 75.3382L189.514 116.566L191.163 115.434ZM163.005 74.7718V73.0751H161.005V74.7718H163.005ZM162.836 73.6306L191.17 31.2147L189.507 30.1038L161.173 72.5197L162.836 73.6306ZM190.338 29.6593H161.835V31.6593H190.338V29.6593ZM160.987 30.1293L143.172 58.6327L144.868 59.6927L162.683 31.1893L160.987 30.1293ZM144.02 58.1627H142.493V60.1627H144.02V58.1627ZM143.335 58.622L125.011 30.1185L123.329 31.2L141.652 59.7035L143.335 58.622ZM124.17 29.6593H94.818V31.6593H124.17V29.6593ZM93.9927 31.2241L122.327 72.622L123.977 71.4924L95.6432 30.0945L93.9927 31.2241ZM122.152 72.0572V73.5841H124.152V72.0572H122.152ZM122.32 73.0287L93.9864 115.445L95.6495 116.555L123.983 74.1396L122.32 73.0287ZM94.818 117H123.321V115H94.818V117ZM219.116 116V117H220.116V116H219.116ZM219.116 2.32547H220.116V1.32547H219.116V2.32547ZM193.836 2.32547V1.32547H192.836V2.32547H193.836ZM193.836 116H192.836V117H193.836V116ZM220.116 116V2.32547H218.116V116H220.116ZM219.116 1.32547H193.836V3.32547H219.116V1.32547ZM192.836 2.32547V116H194.836V2.32547H192.836ZM193.836 117H219.116V115H193.836V117ZM290.071 76.8077V77.8077H291.071V76.8077H290.071ZM290.071 55.0908H291.071V54.0908H290.071V55.0908ZM226.957 55.0908V54.0908H225.957V55.0908H226.957ZM226.957 76.8077H225.957V77.8077H226.957V76.8077ZM291.071 76.8077V55.0908H289.071V76.8077H291.071ZM290.071 54.0908H226.957V56.0908H290.071V54.0908ZM225.957 55.0908V76.8077H227.957V55.0908H225.957ZM226.957 77.8077H290.071V75.8077H226.957V77.8077ZM359.313 49.4919L359.123 50.4737L359.125 50.4741L359.313 49.4919ZM339.123 45.5897L339.313 44.6078L339.312 44.6077L339.123 45.5897ZM363.724 41.3481H362.724V42.3481H363.724V41.3481ZM388.834 41.3481V42.3481H389.834V41.3481H388.834ZM328.434 67.4762L328.609 66.4917L328.603 66.4907L328.434 67.4762ZM348.454 71.0392L348.279 72.0237L348.286 72.025L348.454 71.0392ZM323.005 76.8077H324.005V75.8077H323.005V76.8077ZM298.064 76.8077V75.8077H297.064V76.8077H298.064ZM346.927 118.697C363.205 118.697 374.586 114.584 381.909 108.029C389.242 101.464 392.379 92.5613 392.379 83.255H390.379C390.379 92.1026 387.408 100.421 380.575 106.538C373.73 112.666 362.886 116.697 346.927 116.697V118.697ZM392.379 83.255C392.379 74.7771 390.3 67.2228 385.072 61.2006C379.851 55.187 371.599 50.8265 359.501 48.5098L359.125 50.4741C370.949 52.7383 378.73 56.9457 383.562 62.5117C388.386 68.0691 390.379 75.1057 390.379 83.255H392.379ZM359.502 48.5101L339.313 44.6078L338.933 46.5715L359.123 50.4737L359.502 48.5101ZM339.312 44.6077C336.01 43.9727 333.376 43.3967 331.277 42.7798C329.172 42.1615 327.664 41.5186 326.581 40.7773C325.521 40.0524 324.86 39.2286 324.447 38.2017C324.022 37.1472 323.835 35.8192 323.835 34.0525H321.835C321.835 35.9337 322.03 37.5536 322.591 38.9486C323.164 40.3712 324.093 41.4986 325.452 42.4279C326.786 43.3408 328.523 44.0552 330.713 44.6987C332.908 45.3437 335.619 45.9342 338.934 46.5717L339.312 44.6077ZM323.835 34.0525C323.835 32.3738 324.105 31.0029 324.672 29.8793C325.232 28.7684 326.113 27.8353 327.446 27.0738C330.171 25.5166 334.732 24.7031 342.007 24.7031V22.7031C334.691 22.7031 329.666 23.5013 326.453 25.3374C324.817 26.2725 323.641 27.4814 322.886 28.9791C322.137 30.4641 321.835 32.1684 321.835 34.0525H323.835ZM342.007 24.7031C350.4 24.7031 355.527 25.6944 358.57 27.943C361.513 30.1172 362.724 33.6503 362.724 39.4818H364.724C364.724 33.4368 363.475 29.0805 359.759 26.3345C356.143 23.6628 350.41 22.7031 342.007 22.7031V24.7031ZM362.724 39.4818V41.3481H364.724V39.4818H362.724ZM363.724 42.3481H388.834V40.3481H363.724V42.3481ZM389.834 41.3481V39.9908H387.834V41.3481H389.834ZM389.834 39.9908C389.834 28.5077 386.376 18.375 378.683 11.1203C370.997 3.87197 359.223 -0.371159 342.855 -0.371159V1.62884C358.894 1.62884 370.109 5.78405 377.311 12.5754C384.506 19.3603 387.834 28.9085 387.834 39.9908H389.834ZM342.855 -0.371159C326.397 -0.371159 314.81 3.95927 307.325 10.6126C299.834 17.2717 296.555 26.1671 296.555 35.0705H298.555C298.555 26.6683 301.639 18.3428 308.654 12.1075C315.675 5.86641 326.738 1.62884 342.855 1.62884V-0.371159ZM296.555 35.0705C296.555 44.0699 298.896 51.5063 304.116 57.1683C309.322 62.8161 317.279 66.5736 328.265 68.4618L328.603 66.4907C317.872 64.6463 310.39 61.0234 305.586 55.8127C300.796 50.6164 298.555 43.7161 298.555 35.0705H296.555ZM328.259 68.4608L348.279 72.0237L348.629 70.0546L328.609 66.4917L328.259 68.4608ZM348.286 72.025C352.256 72.7007 355.301 73.3704 357.639 74.1059C359.982 74.8429 361.555 75.6278 362.625 76.501C364.663 78.1637 365.099 80.3236 365.099 84.1033H367.099C367.099 80.2481 366.687 77.2332 363.89 74.9513C362.542 73.8521 360.7 72.9722 358.24 72.1981C355.774 71.4226 352.626 70.735 348.622 70.0534L348.286 72.025ZM365.099 84.1033C365.099 87.7643 364.256 89.9653 361.987 91.3768C359.56 92.8866 355.33 93.6224 348.115 93.6224V95.6224C355.322 95.6224 360.084 94.9161 363.043 93.075C366.161 91.1356 367.099 88.0771 367.099 84.1033H365.099ZM348.115 93.6224C343.004 93.6224 338.929 93.4001 335.689 92.8821C332.445 92.3634 330.104 91.5582 328.414 90.438C325.144 88.2703 324.005 84.7035 324.005 78.5044H322.005C322.005 84.8603 323.156 89.3525 327.309 92.1051C329.33 93.445 331.984 94.3152 335.373 94.857C338.765 95.3994 342.962 95.6224 348.115 95.6224V93.6224ZM324.005 78.5044V76.8077H322.005V78.5044H324.005ZM323.005 75.8077H298.064V77.8077H323.005V75.8077ZM297.064 76.8077V79.0134H299.064V76.8077H297.064ZM297.064 79.0134C297.064 91.7836 301 101.777 309.331 108.547C317.622 115.285 330.106 118.697 346.927 118.697V116.697C330.325 116.697 318.377 113.321 310.593 106.995C302.848 100.701 299.064 91.3533 299.064 79.0134H297.064ZM453.382 114.643L453.586 115.622L454.382 115.456V114.643H453.382ZM453.382 93.4348H454.382V92.4348H453.382V93.4348ZM429.29 51.6975V50.6975H428.29V51.6975H429.29ZM453.382 51.6975V52.6975H454.382V51.6975H453.382ZM453.382 30.6593H454.382V29.6593H453.382V30.6593ZM429.29 30.6593H428.29V31.6593H429.29V30.6593ZM429.29 10.8086H430.29V9.80865H429.29V10.8086ZM409.269 10.8086V9.80865H408.48L408.297 10.5759L409.269 10.8086ZM404.519 30.6593V31.6593H405.308L405.491 30.892L404.519 30.6593ZM390.267 30.6593V29.6593H389.267V30.6593H390.267ZM390.267 51.6975H389.267V52.6975H390.267V51.6975ZM403.84 51.6975H404.84V50.6975H403.84V51.6975ZM436.755 117.339C442.77 117.339 449.455 116.482 453.586 115.622L453.178 113.664C449.164 114.5 442.616 115.339 436.755 115.339V117.339ZM454.382 114.643V93.4348H452.382V114.643H454.382ZM453.382 92.4348H442.863V94.4348H453.382V92.4348ZM442.863 92.4348C440.109 92.4348 437.929 92.3813 436.198 92.1915C434.459 92.0008 433.267 91.6809 432.435 91.2081C430.934 90.3549 430.29 88.8092 430.29 85.1212H428.29C428.29 88.8985 428.918 91.5096 431.446 92.9468C432.629 93.6192 434.141 93.978 435.98 94.1796C437.829 94.3822 440.103 94.4348 442.863 94.4348V92.4348ZM430.29 85.1212V51.6975H428.29V85.1212H430.29ZM429.29 52.6975H453.382V50.6975H429.29V52.6975ZM454.382 51.6975V30.6593H452.382V51.6975H454.382ZM453.382 29.6593H429.29V31.6593H453.382V29.6593ZM430.29 30.6593V10.8086H428.29V30.6593H430.29ZM429.29 9.80865H409.269V11.8086H429.29V9.80865ZM408.297 10.5759L403.546 30.4265L405.491 30.892L410.242 11.0414L408.297 10.5759ZM404.519 29.6593H390.267V31.6593H404.519V29.6593ZM389.267 30.6593V51.6975H391.267V30.6593H389.267ZM390.267 52.6975H403.84V50.6975H390.267V52.6975ZM402.84 51.6975V88.0055H404.84V51.6975H402.84ZM402.84 88.0055C402.84 98.2712 405.562 105.693 411.321 110.511C417.039 115.294 425.555 117.339 436.755 117.339V115.339C425.728 115.339 417.787 113.312 412.604 108.977C407.462 104.675 404.84 97.9299 404.84 88.0055H402.84ZM521.822 101.07V100.07H521.195L520.922 100.635L521.822 101.07ZM522.671 101.07H523.671V100.07H522.671V101.07ZM522.671 116H521.671V117H522.671V116ZM546.254 116V117H547.254V116H546.254ZM546.254 30.6593H547.254V29.6593H546.254V30.6593ZM520.974 30.6593V29.6593H519.974V30.6593H520.974ZM486.702 30.6593H487.702V29.6593H486.702V30.6593ZM461.422 30.6593V29.6593H460.422V30.6593H461.422ZM493.149 118.697C500.77 118.697 506.94 116.963 511.831 113.923C516.723 110.882 520.278 106.57 522.723 101.504L520.922 100.635C518.617 105.41 515.3 109.411 510.775 112.224C506.251 115.037 500.46 116.697 493.149 116.697V118.697ZM521.822 102.07H522.671V100.07H521.822V102.07ZM521.671 101.07V116H523.671V101.07H521.671ZM522.671 117H546.254V115H522.671V117ZM547.254 116V30.6593H545.254V116H547.254ZM546.254 29.6593H520.974V31.6593H546.254V29.6593ZM519.974 30.6593V79.0134H521.974V30.6593H519.974ZM519.974 79.0134C519.974 85.3627 518.673 89.2056 516.144 91.5077C513.592 93.8313 509.552 94.81 503.499 94.81V96.81C509.662 96.81 514.359 95.8377 517.491 92.9866C520.646 90.1139 521.974 85.5585 521.974 79.0134H519.974ZM503.499 94.81C497.192 94.81 493.341 93.7462 491.027 91.4889C488.721 89.2395 487.702 85.5682 487.702 79.692H485.702C485.702 85.6923 486.719 90.08 489.63 92.9205C492.534 95.7531 497.081 96.81 503.499 96.81V94.81ZM487.702 79.692V30.6593H485.702V79.692H487.702ZM486.702 29.6593H461.422V31.6593H486.702V29.6593ZM460.422 30.6593V84.7819H462.422V30.6593H460.422ZM460.422 84.7819C460.422 94.0163 462.795 102.505 468.13 108.7C473.486 114.919 481.717 118.697 493.149 118.697V116.697C482.186 116.697 474.554 113.094 469.645 107.394C464.716 101.67 462.422 93.7015 462.422 84.7819H460.422ZM618.52 103.445V102.445H617.892L617.619 103.011L618.52 103.445ZM619.368 103.445H620.368V102.445H619.368V103.445ZM619.368 116H618.368V117H619.368V116ZM642.952 116V117H643.952V116H642.952ZM642.952 2.32547H643.952V1.32547H642.952V2.32547ZM617.672 2.32547V1.32547H616.672V2.32547H617.672ZM617.672 41.8571V42.8571H618.672V41.8571H617.672ZM616.654 41.8571L615.777 42.3374L616.061 42.8571H616.654V41.8571ZM591.883 118.697C604.703 118.697 614.797 113.482 619.421 103.879L617.619 103.011C613.421 111.731 604.173 116.697 591.883 116.697V118.697ZM618.52 104.445H619.368V102.445H618.52V104.445ZM618.368 103.445V116H620.368V103.445H618.368ZM619.368 117H642.952V115H619.368V117ZM643.952 116V2.32547H641.952V116H643.952ZM642.952 1.32547H617.672V3.32547H642.952V1.32547ZM616.672 2.32547V41.8571H618.672V2.32547H616.672ZM617.672 40.8571H616.654V42.8571H617.672V40.8571ZM617.531 41.3767C613.442 33.9108 605.289 27.9626 591.883 27.9626V29.9626C604.605 29.9626 612.061 35.5516 615.777 42.3374L617.531 41.3767ZM591.883 27.9626C579.988 27.9626 570.447 32.4461 563.9 40.4387C557.372 48.4073 553.896 59.7677 553.896 73.4145H555.896C555.896 60.0848 559.292 49.2192 565.447 41.7061C571.582 34.2169 580.534 29.9626 591.883 29.9626V27.9626ZM553.896 73.4145C553.896 86.9635 557.154 98.2835 563.577 106.236C570.025 114.219 579.572 118.697 591.883 118.697V116.697C580.101 116.697 571.156 112.437 565.133 104.98C559.086 97.4933 555.896 86.6723 555.896 73.4145H553.896ZM581.176 73.4145C581.176 65.6383 582.204 60.2527 584.851 56.8022C587.441 53.4249 591.771 51.6796 599.009 51.6796V49.6796C591.486 49.6796 586.399 51.4972 583.264 55.585C580.184 59.5997 579.176 65.5816 579.176 73.4145H581.176ZM599.009 51.6796C604.95 51.6796 609.34 52.7325 612.237 55.0264C615.082 57.2798 616.672 60.8845 616.672 66.4583H618.672C618.672 60.4949 616.953 56.2102 613.478 53.4586C610.055 50.7474 605.114 49.6796 599.009 49.6796V51.6796ZM616.672 66.4583V80.201H618.672V66.4583H616.672ZM616.672 80.201C616.672 85.7747 615.082 89.3794 612.237 91.6328C609.34 93.9267 604.95 94.9797 599.009 94.9797V96.9797C605.114 96.9797 610.055 95.9119 613.478 93.2007C616.953 90.449 618.672 86.1644 618.672 80.201H616.672ZM599.009 94.9797C591.771 94.9797 587.44 93.2342 584.849 89.8761C582.204 86.4468 581.176 81.1041 581.176 73.4145H579.176C579.176 81.1642 580.185 87.1041 583.265 91.0977C586.401 95.1623 591.486 96.9797 599.009 96.9797V94.9797ZM679.051 20.9885V21.9885H680.051V20.9885H679.051ZM679.051 2.32547H680.051V1.32547H679.051V2.32547ZM653.772 2.32547V1.32547H652.753L652.772 2.34365L653.772 2.32547ZM654.111 20.9885L653.111 21.0066L653.129 21.9885H654.111V20.9885ZM679.56 116V117H680.56V116H679.56ZM679.56 30.6593H680.56V29.6593H679.56V30.6593ZM654.111 30.6593V29.6593H653.111V30.6593H654.111ZM654.111 116H653.111V117H654.111V116ZM680.051 20.9885V2.32547H678.051V20.9885H680.051ZM679.051 1.32547H653.772V3.32547H679.051V1.32547ZM652.772 2.34365L653.111 21.0066L655.111 20.9703L654.771 2.3073L652.772 2.34365ZM654.111 21.9885H679.051V19.9885H654.111V21.9885ZM680.56 116V30.6593H678.56V116H680.56ZM679.56 29.6593H654.111V31.6593H679.56V29.6593ZM653.111 30.6593V116H655.111V30.6593H653.111ZM654.111 117H679.56V115H654.111V117ZM730.066 118.697C743.94 118.697 755.037 114.296 762.662 106.365C770.282 98.4389 774.33 87.0978 774.33 73.4145H772.33C772.33 86.7076 768.403 97.5076 761.22 104.979C754.043 112.444 743.507 116.697 730.066 116.697V118.697ZM774.33 73.4145C774.33 59.6478 770.283 48.2643 762.663 40.3167C755.037 32.3632 743.94 27.9626 730.066 27.9626V29.9626C743.507 29.9626 754.042 34.2149 761.22 41.7008C768.402 49.1925 772.33 60.035 772.33 73.4145H774.33ZM730.066 27.9626C716.109 27.9626 704.887 32.3617 697.155 40.3116C689.428 48.2576 685.293 59.6422 685.293 73.4145H687.293C687.293 60.0406 691.302 49.1993 698.589 41.7059C705.873 34.2165 716.537 29.9626 730.066 29.9626V27.9626ZM685.293 73.4145C685.293 87.1035 689.428 98.4457 697.156 106.37C704.887 114.298 716.109 118.697 730.066 118.697V116.697C716.537 116.697 705.872 112.443 698.588 104.974C691.301 97.5008 687.293 86.7019 687.293 73.4145H685.293ZM730.066 94.3011C723.199 94.3011 718.912 92.9535 716.276 89.8785C713.6 86.7562 712.403 81.6093 712.403 73.4145H710.403C710.403 81.677 711.581 87.4734 714.758 91.1801C717.976 94.934 723.021 96.3011 730.066 96.3011V94.3011ZM712.403 73.4145C712.403 65.1331 713.601 59.9432 716.278 56.7997C718.914 53.7058 723.199 52.3582 730.066 52.3582V50.3582C723.021 50.3582 717.974 51.7253 714.756 55.5027C711.58 59.2306 710.403 65.0688 710.403 73.4145H712.403ZM730.066 52.3582C736.845 52.3582 741.087 53.7043 743.702 56.7969C746.362 59.9413 747.559 65.1336 747.559 73.4145H749.559C749.559 65.0684 748.381 59.2325 745.23 55.5055C742.034 51.7267 737.03 50.3582 730.066 50.3582V52.3582ZM747.559 73.4145C747.559 81.6088 746.362 86.758 743.704 89.8812C741.089 92.9549 736.845 94.3011 730.066 94.3011V96.3011C737.029 96.3011 742.032 94.9326 745.228 91.1773C748.381 87.4716 749.559 81.6774 749.559 73.4145H747.559Z" fill="black" fill-opacity="0.3"/>
</svg>
