<svg width="526" height="548" viewBox="0 0 526 548" fill="none" xmlns="http://www.w3.org/2000/svg">
<path fill-rule="evenodd" clip-rule="evenodd" d="M298.761 4.96788C352.299 -2.11963 411.865 -2.85428 454.841 29.8509C497.54 62.3455 508.056 120.531 519.502 172.954C529.905 220.602 523.35 267.28 517.244 315.666C509.488 377.133 521.751 447.968 479.125 492.927C434.917 539.554 362.863 550.507 298.761 546.107C237.271 541.886 177.839 514.163 135.532 469.342C97.2335 428.769 102.111 367.079 81.0155 315.427C57.3825 257.561 -16.3723 207.975 4.7615 149.151C26.0599 89.8682 113.513 95.2861 170.07 67.5495C213.972 46.0194 250.287 11.3849 298.761 4.96788Z" fill="#C4C4C4" stroke="black"/>
</svg>
