<svg width="90" height="90" viewBox="0 0 90 90" fill="none" xmlns="http://www.w3.org/2000/svg">
    <g clip-path="url(#clip0)" class="hello">
<path d="M39.7 5.4V5.2L40.9 5.1V5.2C41 6.1 41.4 6.6 42.9 6.5C44 6.4 44.4 6.1 44.3 5.4C44.3 4.7 44 4.5 42.9 4.3L41.6 4.1C40.3 3.9 39.6 3.4 39.5 2.2C39.4 1.1 40.2 0.100001 42.1 -0.099999C44.1 -0.199999 45 0.900001 45.1 2.2V2.3L44 2.5V2.4C44 1.5 43.6 1 42.2 1.1C41.1 1.2 40.7 1.5 40.7 2.1C40.7 2.8 41 2.9 42.1 3.1L43.4 3.3C44.8 3.5 45.4 4.2 45.5 5.3C45.6 6.5 44.8 7.5 42.9 7.6C40.8 7.7 39.8 6.8 39.7 5.4Z" fill="black"/>
<path d="M46.2 7.3L47 0L50.2 0.3C51.8 0.5 52.6999 1.4 52.5999 2.8C52.4999 4 51.5999 4.7 50.2999 4.6V4.7C50.7999 4.9 51.0999 5.3 51.2999 5.8L52.2 8L50.7999 7.9L50 5.9C49.7 5.2 49.4999 4.9 48.5999 4.8L47.7 4.7L47.4 7.5L46.2 7.3ZM47.7999 3.7L49.9 3.9C50.9 4 51.2999 3.7 51.2999 2.8C51.3999 1.9 51.0999 1.5 50.0999 1.4L48 1.2L47.7999 3.7Z" fill="black"/>
<path d="M53.4 4.49998C54.1 2.29998 55.7 1.19998 57.8 1.79998C59.7 2.39998 60.5 3.79998 60 5.49998V5.59998L58.8 5.19998V5.09998C59.1 3.89998 58.8 3.29998 57.4 2.89998C56 2.49998 55.2 2.99998 54.6 4.79998C54 6.59998 54.4 7.59998 55.9 7.99998C57.2 8.39998 57.9 8.09998 58.3 6.89998V6.79998L59.5 7.19998V7.29998C59 8.99998 57.5 9.69998 55.6 9.09998C53.6 8.49998 52.7 6.69998 53.4 4.49998Z" fill="black"/>
<path d="M60.7999 6.80004C61.8999 4.80004 63.6999 4.10004 65.5999 5.00004C67.4999 6.00004 67.8999 7.90004 66.8999 10C65.7999 12 63.9999 12.7 62.0999 11.8C60.2999 10.8 59.7999 8.80004 60.7999 6.80004ZM65.7999 9.40004C66.6999 7.70004 66.4999 6.80004 65.0999 6.00004C63.6999 5.20004 62.7999 5.60004 61.8999 7.30004C60.9999 9.00004 61.1999 10 62.5999 10.7C63.9999 11.4 64.8999 11.1 65.7999 9.40004Z" fill="black"/>
<path d="M65.7 13.7L70.2 7.80005L71.1 8.50005L67.3 13.5L70.4 15.9L69.8 16.7L65.7 13.7Z" fill="black"/>
<path d="M70 17L75.3 11.8L76.1 12.6L71.6 17L74.3 19.8L73.5 20.5L70 17Z" fill="black"/>
<path d="M75.1001 22.6L81.4001 18.7L82.8001 20.9C84.0001 22.8 83.6001 24.8 81.6001 26C79.6001 27.2 77.7001 26.6999 76.5001 24.7999L75.1001 22.6ZM81.1001 20.2999L76.7001 23L77.5001 24.2C78.4001 25.7 79.4001 25.9 81.0001 24.9C82.6001 23.9 82.9001 22.9 81.9001 21.4L81.1001 20.2999Z" fill="black"/>
<path d="M82.1 27.1C84.2 26.3 86.1 27 86.9 29C87.6 31 86.7 32.7 84.6 33.6C82.5 34.5 80.6 33.7 79.8 31.7C79.1 29.7 80 27.9 82.1 27.1ZM84.1 32.3C85.9 31.6 86.4 30.8 85.8 29.3C85.2 27.8 84.3 27.5 82.5 28.2C80.7 28.9 80.3 29.7 80.8 31.2C81.3 32.7 82.3 33 84.1 32.3Z" fill="black"/>
<path d="M81.5 36.3L88.6 33.6L88.8 35L84.8 36.5L82.8 37.1V37.2L84.9 37.4L89.2 38L89.4 39.6L85.5 41.4L83.5 42.1V42.2H85.6L89.8 42.6L90 43.9L82.5 43.2L82.3 41.5L85.9 39.9L88 39V38.9L85.7 38.6L81.7 38L81.5 36.3Z" fill="black"/>
<path d="M82.5 45.2L89.8 45.8L89.7 47.1L85.2 49.5L84 50.2V50.3L89.4 50.8L89.3 52L82 51.4V50L86.4 47.6L87.7 46.9V46.8L82.4 46.3L82.5 45.2Z" fill="black"/>
<path d="M84 54.5L85 54.8L84 58.2L83 57.9L84 54.5Z" fill="black"/>
<path d="M81.4999 60.6L81.6999 60.7L81.1999 61.7L81.0999 61.6C80.2999 61.2 79.6999 61.3 78.9999 62.7C78.4999 63.7 78.5999 64.2 79.1999 64.5C79.7999 64.8 80.0999 64.7 80.7999 63.8L81.5999 62.8C82.3999 61.8 83.2999 61.5 84.2999 62C85.2999 62.5 85.7999 63.7 84.8999 65.4C83.9999 67.2 82.5999 67.4 81.3999 66.8L81.2999 66.7L81.7999 65.7L81.8999 65.8C82.6999 66.2 83.2999 66.1 83.8999 64.9C84.3999 63.9 84.2999 63.4 83.6999 63.1C83.0999 62.8 82.7999 63 82.0999 63.8L81.2999 64.8C80.3999 65.9 79.4999 66.1 78.4999 65.6C77.4999 65.1 76.9999 63.9 77.8999 62.2C78.9999 60.3 80.2999 59.9 81.4999 60.6Z" fill="black"/>
<path d="M79.6001 67.2C81.4001 68.6 81.8001 70.5 80.5001 72.2C79.3001 73.8 77.7001 74.1 76.3001 73H76.2001L77.0001 72H77.1001C78.1001 72.7 78.8001 72.6 79.7001 71.5C80.6001 70.3 80.4001 69.3 78.9001 68.2C77.4001 67 76.4001 67.1 75.5001 68.3C74.7001 69.4 74.7001 70.2 75.7001 70.9H75.8001L75.0001 71.9H74.9001C73.5001 70.8 73.3001 69.2 74.5001 67.6C75.8001 65.9 77.8001 65.8 79.6001 67.2Z" fill="black"/>
<path d="M74.8 73.3C76.3 75 76.3 77 74.8 78.4C73.2 79.8 71.2 79.6 69.7 77.9C68.2 76.2 68.2 74.2 69.7 72.8C71.3 71.4 73.3 71.6 74.8 73.3ZM70.7 77.1C72 78.5 72.9 78.6 74.1 77.6C75.2 76.6 75.2 75.6 74 74.2C72.8 72.8 71.8 72.7 70.6 73.7C69.4 74.7 69.4 75.6 70.7 77.1Z" fill="black"/>
<path d="M66.7 75.5L70.6 81.7L69.6 82.3L66.2 77L62.9001 79.1L62.3 78.2L66.7 75.5Z" fill="black"/>
<path d="M62.1 78.3L65.1 85L64 85.5L61.5 79.7L57.9 81.3L57.5 80.3L62.1 78.3Z" fill="black"/>
<path d="M54.9999 81.1L56.3999 88.3L53.7999 88.8C51.5999 89.2 49.8999 88.1 49.3999 85.9C48.8999 83.7 50.0999 82 52.3999 81.6L54.9999 81.1ZM54.9999 87.6L53.9999 82.5L52.5999 82.8C50.8999 83.1 50.2999 84 50.6999 85.8C51.0999 87.7 51.8999 88.2 53.5999 87.9L54.9999 87.6Z" fill="black"/>
<path d="M48.4 86C48.4 88.3 47.1 89.8 45 89.9C42.9 89.9 41.5 88.5 41.5 86.2C41.5 83.9 42.8 82.4 44.9 82.3C47 82.3 48.4 83.7 48.4 86ZM42.8 86.1C42.8 88 43.5 88.7 45 88.7C46.5 88.7 47.2 87.9 47.1 86C47.1 84.1 46.4 83.4 44.9 83.4C43.4 83.4 42.8 84.2 42.8 86.1Z" fill="black"/>
<path d="M39.9999 82.3V89.9L38.6999 89.6V85.4L38.7999 83.3H38.6999L37.7999 85.2L35.6999 89L34.0999 88.6L33.7999 84.3V82.2H33.6999L32.9999 84L31.1999 87.8L29.8999 87.5L33.1999 80.7L34.8999 81.1L35.1999 85L35.2999 87.4H35.3999L36.4999 85.3L38.3999 81.9L39.9999 82.3Z" fill="black"/>
<path d="M31.3001 80L28.1001 86.6L27.0001 86.1L26.3001 81.1L26.1001 79.7H26.0001L23.7001 84.6L22.6001 84L25.8001 77.4L26.9001 78L27.6001 83L27.8001 84.4H27.9001L30.2001 79.6L31.3001 80Z" fill="black"/>
<path d="M22.0001 78.1L21.4001 78.9L18.6001 76.8L19.2001 76L22.0001 78.1Z" fill="black"/>
<path d="M17.2 73.7L17.1 73.8L16.3 72.9L16.4 72.8C17.1 72.2 17.2 71.6 16.1 70.5C15.4 69.7 14.9 69.6 14.4 70.1C13.9 70.6 13.9 70.9 14.5 71.9L15.2 73C15.9 74.1 15.9 75 15 75.8C14.2 76.5 12.9 76.6 11.6 75.2C10.2 73.7 10.5 72.3 11.5 71.4L11.6 71.3L12.4 72.2L12.3 72.3C11.6 72.9 11.5 73.5 12.4 74.5C13.1 75.3 13.7 75.4 14.1 75C14.6 74.5 14.5 74.2 14 73.3L13.4 72.2C12.7 71 12.8 70.1 13.6 69.3C14.5 68.5 15.7 68.5 17 69.9C18.4 71.4 18.3 72.7 17.2 73.7Z" fill="black"/>
<path d="M11.6999 69.6C9.79994 70.8 7.79994 70.5 6.69994 68.7C5.59994 67 5.89994 65.4 7.39994 64.5H7.49994L8.19994 65.6H8.09994C7.09994 66.2 6.89994 67 7.69994 68.2C8.49994 69.5 9.49994 69.6 11.0999 68.6C12.6999 67.6 12.9999 66.7 12.1999 65.4C11.4999 64.2 10.6999 64 9.69994 64.7H9.59994L8.89994 63.6H8.99994C10.4999 62.7 12.0999 63.1 13.0999 64.8C14.1999 66.5 13.6999 68.4 11.6999 69.6Z" fill="black"/>
<path d="M11.1001 61.5L4.30006 64.3L3.00006 61.3C2.40006 59.8 2.80006 58.5 4.10006 58C5.20006 57.5 6.20006 58 6.70006 59.1H6.80006C6.80006 58.5 6.90006 58.1 7.30006 57.7L8.80006 55.9L9.30006 57.2L8.00006 58.8C7.50006 59.4 7.40006 59.8 7.70006 60.6L8.00006 61.4L10.6001 60.3L11.1001 61.5ZM7.10006 61.8L6.30006 59.8C5.90006 58.9 5.50006 58.7 4.70006 59C3.90006 59.3 3.70006 59.8 4.00006 60.7L4.80006 62.7L7.10006 61.8Z" fill="black"/>
<path d="M5.09999 56.5C2.79999 57 1.09999 55.9 0.699994 53.9C0.299994 51.9 1.49999 50.2 3.69999 49.8C5.99999 49.3 7.69999 50.4 8.09999 52.4C8.59999 54.4 7.39999 56 5.09999 56.5ZM3.99999 51C2.09999 51.4 1.49999 52.1 1.79999 53.6C2.09999 55.1 2.99999 55.6 4.79999 55.2C6.69999 54.8 7.29999 54 6.99999 52.5C6.79999 51.1 5.89999 50.6 3.99999 51Z" fill="black"/>
<path d="M7.4 48.2999L0 48.5V47.2999L6.3 47.0999L6.2 43.2H7.3L7.4 48.2999Z" fill="black"/>
<path d="M7.3 42.9L0 42.0999L0.1 40.9L6.4 41.5999L6.8 37.7L7.9 37.7999L7.3 42.9Z" fill="black"/>
<path d="M8.3999 35.3999L1.3999 32.9999L2.2999 30.4999C3.0999 28.3999 4.8999 27.3999 6.9999 28.1999C9.0999 28.9999 9.9999 30.7999 9.1999 32.8999L8.3999 35.3999ZM2.8999 32.1999L7.7999 33.8999L8.2999 32.5999C8.8999 30.8999 8.3999 29.9999 6.5999 29.3999C4.7999 28.7999 3.8999 29.1999 3.2999 30.8999L2.8999 32.1999Z" fill="black"/>
<path d="M7.50001 27.1C5.50001 25.9 4.90001 24 6.00001 22.2C7.10001 20.4 9.00001 20 11 21.2C13 22.4 13.6 24.3 12.5 26.1C11.5 27.9 9.50001 28.3 7.50001 27.1ZM10.4 22.3C8.70001 21.3 7.80001 21.5 7.00001 22.8C6.20001 24.1 6.50001 25.1 8.20001 26C9.90001 27 10.8 26.8 11.6 25.5C12.3 24.2 12 23.3 10.4 22.3Z" fill="black"/>
<path d="M15.1 21.8L8.5 18L9.4 17L13.1 19.2L14.8 20.4L14.9 20.3L13.7 18.6L11.5 14.9L12.6 13.7L16.5 15.6L18.3 16.6L18.4 16.5L17.1 14.9L14.7 11.4L15.6 10.4L19.8 16.7L18.7 18L15.2 16.3L13.1 15.2H13L14.3 17.2L16.3 20.6L15.1 21.8Z" fill="black"/>
<path d="M21.4 15.5L17.3 9.40002L18.4 8.70002L23.1 10.6L24.4 11.1H24.5L21.5 6.60002L22.5 5.90002L26.6 12L25.5 12.7L20.9 10.8L19.6 10.3H19.5L22.5 14.7L21.4 15.5Z" fill="black"/>
<path d="M27.7999 8.39995L27.3999 7.49995L30.5999 6.19995L30.9999 7.09995L27.7999 8.39995Z" fill="black"/>
<g clip-path="url(#clip1)">
<path d="M55.6797 37.9159L50.749 37.9159L45.2513 44.8872C45.1289 45.0407 44.8714 45.0407 44.7481 44.8872L39.2495 37.9159L34.3188 37.9159C34.1972 37.9159 34.0857 37.983 34.0303 38.0937C33.9783 38.2044 33.9934 38.3369 34.0689 38.4317L44.7481 51.9692C44.8705 52.1227 45.128 52.1227 45.2513 51.9692L55.9313 38.4317C56.006 38.3369 56.0219 38.2044 55.9674 38.0937C55.9154 37.983 55.803 37.9159 55.6797 37.9159Z" fill="#EB5757"/>
</g>
</g>
<defs>
<clipPath id="clip0">
<rect width="90" height="89.9" fill="white"/>
</clipPath>
<clipPath id="clip1">
<rect width="22" height="22" fill="white" transform="translate(56 34) rotate(90)"/>
</clipPath>
</defs>
</svg>
