<svg width="90" height="90" viewBox="0 0 90 90" fill="none" xmlns="http://www.w3.org/2000/svg">
<path d="M39.7 5.4V5.2L40.9 5.1V5.2C41 6.1 41.4 6.6 42.9 6.5C44 6.4 44.4 6.1 44.3 5.4C44.3 4.7 44 4.5 42.9 4.3L41.6 4.1C40.3 3.9 39.6 3.4 39.5 2.2C39.4 1.1 40.2 0.100001 42.1 -0.099999C44.1 -0.199999 45 0.900001 45.1 2.2V2.3L44 2.5V2.4C44 1.5 43.6 1 42.2 1.1C41.1 1.2 40.7 1.5 40.7 2.1C40.7 2.8 41 2.9 42.1 3.1L43.4 3.3C44.8 3.5 45.4 4.2 45.5 5.3C45.6 6.5 44.8 7.5 42.9 7.6C40.8 7.7 39.8 6.8 39.7 5.4Z" fill="black"/>
<path d="M46.2 7.3L47 0L50.2 0.3C51.8 0.5 52.7 1.4 52.6 2.8C52.5 4 51.6 4.7 50.3 4.6V4.7C50.8 4.9 51.1 5.3 51.3 5.8L52.2 8L50.8 7.9L50 5.9C49.7 5.2 49.5 4.9 48.6 4.8L47.7 4.7L47.4 7.5L46.2 7.3ZM47.8 3.7L49.9 3.9C50.9 4 51.3 3.7 51.3 2.8C51.4 1.9 51.1 1.5 50.1 1.4L48 1.2L47.8 3.7Z" fill="black"/>
<path d="M53.4 4.49998C54.1 2.29998 55.7 1.19998 57.8 1.79998C59.7 2.39998 60.5 3.79998 60 5.49998V5.59998L58.8 5.19998V5.09998C59.1 3.89998 58.8 3.29998 57.4 2.89998C56 2.49998 55.2 2.99998 54.6 4.79998C54 6.59998 54.4 7.59998 55.9 7.99998C57.2 8.39998 57.9 8.09998 58.3 6.89998V6.79998L59.5 7.19998V7.29998C59 8.99998 57.5 9.69998 55.6 9.09998C53.6 8.49998 52.7 6.69998 53.4 4.49998Z" fill="black"/>
<path d="M60.8 6.80004C61.9 4.80004 63.7 4.10004 65.6 5.00004C67.5 6.00004 67.9 7.90004 66.9 10C65.8 12 64 12.7 62.1 11.8C60.3 10.8 59.8 8.80004 60.8 6.80004ZM65.8 9.40004C66.7 7.70004 66.5 6.80004 65.1 6.00004C63.7 5.20004 62.8 5.60004 61.9 7.30004C61 9.00004 61.2 10 62.6 10.7C64 11.4 64.9 11.1 65.8 9.40004Z" fill="black"/>
<path d="M65.7 13.7L70.2 7.80005L71.1 8.50005L67.3 13.5L70.4 15.9L69.8 16.7L65.7 13.7Z" fill="black"/>
<path d="M70 17L75.3 11.8L76.1 12.6L71.6 17L74.3 19.8L73.5 20.5L70 17Z" fill="black"/>
<path d="M75.1 22.6L81.4 18.7L82.8 20.9C84 22.8 83.6 24.8 81.6 26C79.6 27.2 77.7 26.6999 76.5 24.7999L75.1 22.6ZM81.1 20.2999L76.7 23L77.5 24.2C78.4 25.7 79.4 25.9 81 24.9C82.6 23.9 82.9 22.9 81.9 21.4L81.1 20.2999Z" fill="black"/>
<path d="M82.1 27.1C84.2 26.3 86.1 27 86.9 29C87.6 31 86.7 32.7 84.6 33.6C82.5 34.5 80.6 33.7 79.8 31.7C79.1 29.7 80 27.9 82.1 27.1ZM84.1 32.3C85.9 31.6 86.4 30.8 85.8 29.3C85.2 27.8 84.3 27.5 82.5 28.2C80.7 28.9 80.3 29.7 80.8 31.2C81.3 32.7 82.3 33 84.1 32.3Z" fill="black"/>
<path d="M81.5 36.3L88.6 33.6L88.8 35L84.8 36.5L82.8 37.1V37.2L84.9 37.4L89.2 38L89.4 39.6L85.5 41.4L83.5 42.1V42.2H85.6L89.8 42.6L90 43.9L82.5 43.2L82.3 41.5L85.9 39.9L88 39V38.9L85.7 38.6L81.7 38L81.5 36.3Z" fill="black"/>
<path d="M82.5 45.2L89.8 45.8L89.7 47.1L85.2 49.5L84 50.2V50.3L89.4 50.8L89.3 52L82 51.4V50L86.4 47.6L87.7 46.9V46.8L82.4 46.3L82.5 45.2Z" fill="black"/>
<path d="M84 54.5L85 54.8L84 58.2L83 57.9L84 54.5Z" fill="black"/>
<path d="M81.5 60.6L81.7 60.7L81.2 61.7L81.1 61.6C80.3 61.2 79.7 61.3 79 62.7C78.5 63.7 78.6 64.2 79.2 64.5C79.8 64.8 80.1 64.7 80.8 63.8L81.6 62.8C82.4 61.8 83.3 61.5 84.3 62C85.3 62.5 85.8 63.7 84.9 65.4C84 67.2 82.6 67.4 81.4 66.8L81.3 66.7L81.8 65.7L81.9 65.8C82.7 66.2 83.3 66.1 83.9 64.9C84.4 63.9 84.3 63.4 83.7 63.1C83.1 62.8 82.8 63 82.1 63.8L81.3 64.8C80.4 65.9 79.5 66.1 78.5 65.6C77.5 65.1 77 63.9 77.9 62.2C79 60.3 80.3 59.9 81.5 60.6Z" fill="black"/>
<path d="M79.6 67.2C81.4 68.6 81.8 70.5 80.5 72.2C79.3 73.8 77.7 74.1 76.3 73H76.2L77 72H77.1C78.1 72.7 78.8 72.6 79.7 71.5C80.6 70.3 80.4 69.3 78.9 68.2C77.4 67 76.4 67.1 75.5 68.3C74.7 69.4 74.7 70.2 75.7 70.9H75.8L75 71.9H74.9C73.5 70.8 73.3 69.2 74.5 67.6C75.8 65.9 77.8 65.8 79.6 67.2Z" fill="black"/>
<path d="M74.8 73.3C76.3 75 76.3 77 74.8 78.4C73.2 79.8 71.2 79.6 69.7 77.9C68.2 76.2 68.2 74.2 69.7 72.8C71.3 71.4 73.3 71.6 74.8 73.3ZM70.7 77.1C72 78.5 72.9 78.6 74.1 77.6C75.2 76.6 75.2 75.6 74 74.2C72.8 72.8 71.8 72.7 70.6 73.7C69.4 74.7 69.4 75.6 70.7 77.1Z" fill="black"/>
<path d="M66.7 75.5L70.6 81.7L69.6 82.3L66.2 77L62.9 79.1L62.3 78.2L66.7 75.5Z" fill="black"/>
<path d="M62.1 78.3L65.1 85L64 85.5L61.5 79.7L57.9 81.3L57.5 80.3L62.1 78.3Z" fill="black"/>
<path d="M55 81.1L56.4 88.3L53.8 88.8C51.6 89.2 49.9 88.1 49.4 85.9C48.9 83.7 50.1 82 52.4 81.6L55 81.1ZM55 87.6L54 82.5L52.6 82.8C50.9 83.1 50.3 84 50.7 85.8C51.1 87.7 51.9 88.2 53.6 87.9L55 87.6Z" fill="black"/>
<path d="M48.4 86C48.4 88.3 47.1 89.8 45 89.9C42.9 89.9 41.5 88.5 41.5 86.2C41.5 83.9 42.8 82.4 44.9 82.3C47 82.3 48.4 83.7 48.4 86ZM42.8 86.1C42.8 88 43.5 88.7 45 88.7C46.5 88.7 47.2 87.9 47.1 86C47.1 84.1 46.4 83.4 44.9 83.4C43.4 83.4 42.8 84.2 42.8 86.1Z" fill="black"/>
<path d="M40 82.3V89.9L38.7 89.6V85.4L38.8 83.3H38.7L37.8 85.2L35.7 89L34.1 88.6L33.8 84.3V82.2H33.7L33 84L31.2 87.8L29.9 87.5L33.2 80.7L34.9 81.1L35.2 85L35.3 87.4H35.4L36.5 85.3L38.4 81.9L40 82.3Z" fill="black"/>
<path d="M31.3 80L28.1 86.6L27 86.1L26.3 81.1L26.1 79.7H26L23.7 84.6L22.6 84L25.8 77.4L26.9 78L27.6 83L27.8 84.4H27.9L30.2 79.6L31.3 80Z" fill="black"/>
<path d="M22 78.1L21.4 78.9L18.6 76.8L19.2 76L22 78.1Z" fill="black"/>
<path d="M17.2 73.7L17.1 73.8L16.3 72.9L16.4 72.8C17.1 72.2 17.2 71.6 16.1 70.5C15.4 69.7 14.9 69.6 14.4 70.1C13.9 70.6 13.9 70.9 14.5 71.9L15.2 73C15.9 74.1 15.9 75 15 75.8C14.2 76.5 12.9 76.6 11.6 75.2C10.2 73.7 10.5 72.3 11.5 71.4L11.6 71.3L12.4 72.2L12.3 72.3C11.6 72.9 11.5 73.5 12.4 74.5C13.1 75.3 13.7 75.4 14.1 75C14.6 74.5 14.5 74.2 14 73.3L13.4 72.2C12.7 71 12.8 70.1 13.6 69.3C14.5 68.5 15.7 68.5 17 69.9C18.4 71.4 18.3 72.7 17.2 73.7Z" fill="black"/>
<path d="M11.7 69.6C9.8 70.8 7.80001 70.5 6.70001 68.7C5.60001 67 5.90001 65.4 7.40001 64.5H7.50001L8.20001 65.6H8.10001C7.10001 66.2 6.90001 67 7.70001 68.2C8.50001 69.5 9.50001 69.6 11.1 68.6C12.7 67.6 13 66.7 12.2 65.4C11.5 64.2 10.7 64 9.70001 64.7H9.60001L8.90001 63.6H9.00001C10.5 62.7 12.1 63.1 13.1 64.8C14.2 66.5 13.7 68.4 11.7 69.6Z" fill="black"/>
<path d="M11.1001 61.5L4.30006 64.3L3.00006 61.3C2.40006 59.8 2.80006 58.5 4.10006 58C5.20006 57.5 6.20006 58 6.70006 59.1H6.80006C6.80006 58.5 6.90006 58.1 7.30006 57.7L8.80006 55.9L9.30006 57.2L8.00006 58.8C7.50006 59.4 7.40006 59.8 7.70006 60.6L8.00006 61.4L10.6001 60.3L11.1001 61.5ZM7.10006 61.8L6.30006 59.8C5.90006 58.9 5.50006 58.7 4.70006 59C3.90006 59.3 3.70006 59.8 4.00006 60.7L4.80006 62.7L7.10006 61.8Z" fill="black"/>
<path d="M5.09999 56.5C2.79999 57 1.09999 55.9 0.699994 53.9C0.299994 51.9 1.49999 50.2 3.69999 49.8C5.99999 49.3 7.69999 50.4 8.09999 52.4C8.59999 54.4 7.39999 56 5.09999 56.5ZM3.99999 51C2.09999 51.4 1.49999 52.1 1.79999 53.6C2.09999 55.1 2.99999 55.6 4.79999 55.2C6.69999 54.8 7.29999 54 6.99999 52.5C6.79999 51.1 5.89999 50.6 3.99999 51Z" fill="black"/>
<path d="M7.4 48.3L0 48.5V47.3L6.3 47.1L6.2 43.2H7.3L7.4 48.3Z" fill="black"/>
<path d="M7.3 42.9L0 42.1L0.1 40.9L6.4 41.6L6.8 37.7L7.9 37.8L7.3 42.9Z" fill="black"/>
<path d="M8.40002 35.4L1.40002 33L2.30002 30.5C3.10002 28.4 4.90002 27.4 7.00002 28.2C9.10002 29 10 30.8 9.20002 32.9L8.40002 35.4ZM2.90002 32.2L7.80002 33.9L8.30002 32.6C8.90002 30.9 8.40002 30 6.60002 29.4C4.80002 28.8 3.90002 29.2 3.30002 30.9L2.90002 32.2Z" fill="black"/>
<path d="M7.50001 27.1C5.50001 25.9 4.90001 24 6.00001 22.2C7.10001 20.4 9.00001 20 11 21.2C13 22.4 13.6 24.3 12.5 26.1C11.5 27.9 9.50001 28.3 7.50001 27.1ZM10.4 22.3C8.70001 21.3 7.80001 21.5 7.00001 22.8C6.20001 24.1 6.50001 25.1 8.20001 26C9.90001 27 10.8 26.8 11.6 25.5C12.3 24.2 12 23.3 10.4 22.3Z" fill="black"/>
<path d="M15.1 21.8L8.5 18L9.4 17L13.1 19.2L14.8 20.4L14.9 20.3L13.7 18.6L11.5 14.9L12.6 13.7L16.5 15.6L18.3 16.6L18.4 16.5L17.1 14.9L14.7 11.4L15.6 10.4L19.8 16.7L18.7 18L15.2 16.3L13.1 15.2H13L14.3 17.2L16.3 20.6L15.1 21.8Z" fill="black"/>
<path d="M21.4 15.5L17.3 9.40002L18.4 8.70002L23.1 10.6L24.4 11.1H24.5L21.5 6.60002L22.5 5.90002L26.6 12L25.5 12.7L20.9 10.8L19.6 10.3H19.5L22.5 14.7L21.4 15.5Z" fill="black"/>
<path d="M27.8 8.39995L27.4 7.49995L30.6 6.19995L31 7.09995L27.8 8.39995Z" fill="black"/>
</svg>
