<svg width="699" height="727" viewBox="0 0 699 727" fill="none" xmlns="http://www.w3.org/2000/svg">
<path fill-rule="evenodd" clip-rule="evenodd" d="M397.09 6.2687C468.308 -3.14236 547.544 -4.11786 604.712 39.3094C661.512 82.4569 675.5 159.718 690.725 229.327C704.564 292.595 695.845 354.577 687.723 418.826C677.405 500.443 693.717 594.501 637.015 654.199C578.209 716.112 482.36 730.657 397.09 724.814C315.294 719.21 236.236 682.398 179.958 622.883C129.012 569.008 135.5 487.093 107.439 418.508C76.0016 341.672 -22.1091 275.829 6.00366 197.72C34.3354 119.003 150.668 126.197 225.902 89.367C284.301 60.7785 332.609 14.7895 397.09 6.2687Z" fill="#C4C4C4" stroke="black"/>
</svg>
